<svg width="153" height="57" viewBox="0 0 153 57" fill="none" xmlns="http://www.w3.org/2000/svg">
<path d="M95.917 37.408C93.5339 35.6069 92.6362 33.0576 92.5918 30.2035C92.5031 25.3488 92.5918 20.494 92.553 15.6338C92.553 14.7581 92.8357 14.3979 93.6947 14.5254C94.8031 14.6972 95.9835 14.1319 97.0198 14.9078C97.4022 15.4121 97.2914 16.0162 97.2969 16.5704C97.2969 20.7656 97.2637 24.9608 97.2969 29.1505C97.3873 29.5013 97.4227 29.864 97.4022 30.2257C97.2493 30.6962 97.2393 31.2017 97.3745 31.6777C97.4349 31.7754 97.4798 31.882 97.5075 31.9936C97.5208 32.383 97.6588 32.7578 97.901 33.0631C98.0562 33.2793 98.2058 33.5065 98.3776 33.7171C99.7631 35.424 101.625 35.3797 103.454 34.9031C105.283 34.4265 106.258 33.0188 106.563 31.1733C106.766 29.6918 106.842 28.1956 106.79 26.701C106.79 23.0433 106.79 19.3857 106.79 15.7335C106.79 14.8413 107.017 14.3702 107.971 14.5309C109.024 14.7027 110.16 14.1208 111.146 14.8856C111.38 15.3614 111.455 15.8991 111.362 16.4207C111.362 20.8912 111.362 25.3654 111.362 29.8433C111.202 33.5065 110.165 36.6709 106.502 38.3446C105.771 38.6442 105.011 38.8706 104.235 39.0207C103.742 39.0533 103.251 39.1218 102.767 39.2258C102.121 39.2673 101.473 39.2673 100.827 39.2258C100.046 38.8877 99.1645 39.0706 98.3665 38.6716C97.9453 38.4222 97.4466 38.3945 97.0087 38.1783C96.6485 37.9678 96.3215 37.6352 95.917 37.408Z" fill="#30AAE1"/>
<path d="M59.4396 27.6044C58.8854 27.211 58.2592 26.8507 57.644 26.4961C55.1058 24.5176 54.4629 21.924 55.3552 18.9479C56.1145 16.4153 58.6804 14.6862 61.8337 14.5809C64.5216 14.4867 67.2149 14.5477 69.9028 14.5144C70.386 14.534 70.8532 14.6917 71.2495 14.9688C71.2445 15.111 71.2162 15.2514 71.1663 15.3845C70.9336 16.2047 71.3381 17.1357 70.7119 17.8839C69.8363 18.3273 68.8941 18.1 67.9797 18.1277C66.1897 18.1776 64.3996 18.1277 62.6096 18.1277C62.5847 18.2386 62.527 18.3392 62.4433 18.4159C60.1545 19.1807 59.9107 19.4523 59.8386 21.2922C59.812 21.8363 59.9988 22.3692 60.3596 22.7774C61.5345 23.8858 63.0751 24.3624 64.5382 24.9332C66.428 25.6759 68.2956 26.4517 69.6534 28.0533C70.0302 28.5216 70.3328 29.045 70.5512 29.6051C70.662 29.9324 70.8011 30.2494 70.9668 30.5528C70.979 30.5787 70.9857 30.6072 70.9857 30.6359C70.9857 30.6646 70.979 30.6931 70.9668 30.719C70.9114 31.578 71.183 32.4315 71.0555 33.2905C70.5401 36.5768 68.5838 38.3669 64.8153 38.9987C64.2278 39.0763 63.6349 39.0873 63.053 39.2203C61.2962 39.2536 59.5338 39.2203 57.777 39.2203C56.979 39.1483 56.1532 39.3977 55.3939 38.9765C54.6624 37.8681 55.0781 36.6988 55.1224 35.5571C55.1224 35.0639 55.7542 35.2135 56.1255 35.2135C58.1483 35.2135 60.1767 35.2135 62.2217 35.2135C63.3251 35.279 64.4229 35.0085 65.3695 34.4377C65.7569 34.1295 66.0522 33.7211 66.2235 33.2569C66.3953 32.7927 66.4363 32.2904 66.3426 31.8044C66.249 31.3184 66.0245 30.8674 65.6926 30.5002C65.3606 30.133 64.9344 29.8637 64.4606 29.7215C64.3359 29.5681 64.1796 29.4429 64.0028 29.3541C63.8266 29.2653 63.6326 29.2148 63.4353 29.2061C63.0197 28.9733 62.6539 28.5909 62.1053 28.6519C61.8382 28.4791 61.5627 28.3201 61.2795 28.1753C60.681 27.9868 60.0714 27.7707 59.4396 27.6044Z" fill="#30AAE2"/>
<path d="M24.4364 0.0277097C32.1951 0.0277097 39.915 0.0277097 47.6571 0.0277097C48.6934 0.0277097 48.9927 0.271555 48.9871 1.33561C48.9428 11.7212 48.9871 22.1012 48.9871 32.4813C48.9871 44.7788 39.8097 55.3805 27.9278 56.8103C15.1093 58.3288 3.70956 50.5978 0.672582 38.3225C0.230945 36.5646 0.00575229 34.7593 0.00200888 32.9468C0.00200888 22.4171 0.00200888 11.9207 0.00200888 1.40211C-0.0257008 0.332516 0.223686 0 1.3487 0C9.04643 0.0498774 16.7386 0.0277097 24.4364 0.0277097Z" fill="#393837"/>
<path d="M140.117 39.0375C139.563 38.7493 139.713 38.2062 139.707 37.7463C139.707 35.2358 139.674 32.7197 139.707 30.2037C139.732 29.317 139.478 28.445 138.981 27.7098C136.521 23.8914 134.243 19.9511 132.093 15.9554C131.339 14.5477 131.356 14.4701 133.007 14.5588C134.204 14.6198 135.462 14.1598 136.604 14.8913C136.904 15.2654 137.147 15.6818 137.324 16.1272C137.646 16.7091 137.928 17.3076 138.194 17.9172C138.588 18.2165 138.643 18.7208 138.887 19.1087C139.131 19.4967 139.197 19.9622 139.441 20.3501C139.67 20.7642 139.874 21.1917 140.051 21.6303C140.666 22.057 140.799 22.7941 141.159 23.3871C141.918 24.623 142.04 24.6507 142.739 23.4259C144.095 21.1997 145.338 18.9061 146.463 16.5539C147.183 14.8913 148.125 14.2097 149.86 14.5366C150.608 14.6752 151.456 14.2097 152.127 14.8802C151.949 16.5151 150.869 17.7343 150.148 19.1087C148.38 22.4339 146.324 25.6261 144.368 28.8625C144.191 31.7277 144.335 34.5874 144.29 37.447C144.29 39.1096 144.102 39.2703 142.456 39.2537C141.669 39.2592 140.86 39.4532 140.117 39.0375Z" fill="#30AAE2"/>
<path d="M72.6617 18.3382C71.908 17.3019 72.3846 16.1214 72.3236 15.0131C72.3236 14.5475 72.767 14.5475 73.1217 14.5475H90.1853C90.3393 14.5286 90.4951 14.5527 90.6358 14.6174C90.7772 14.6819 90.8974 14.7844 90.9833 14.9133C91.1828 16.1159 91.5707 17.3407 90.684 18.4546C88.6058 18.7483 86.5165 18.4989 84.4327 18.5931C84.2831 18.607 84.1368 18.6464 84.0005 18.7095C83.8725 18.7969 83.7661 18.9125 83.6901 19.0476C83.5532 20.8064 83.5222 22.5719 83.5959 24.3346C83.5959 28.4855 83.5959 32.6475 83.5959 36.7818C83.5959 38.6328 81.8502 39.5971 80.2375 38.6605C79.5337 38.2504 79.6501 37.5521 79.6501 36.8871C79.6501 31.323 79.6501 25.7607 79.6501 20.2003C79.6501 19.7292 79.8052 19.2249 79.4838 18.7871C77.8212 18.3548 76.1586 18.6984 74.4961 18.5876C73.8587 18.5488 73.2214 18.7151 72.6617 18.3382Z" fill="#30AAE2"/>
<path d="M79.418 18.5656C79.9722 18.9535 79.756 19.5299 79.756 20.0287C79.756 25.5706 79.756 31.1569 79.756 36.721C79.756 37.3361 79.623 38.1286 80.3102 38.3835C81.1598 38.6525 82.0715 38.6525 82.9205 38.3835C83.4248 38.2395 83.2142 37.6132 83.2142 37.1976C83.2142 31.4173 83.2142 25.6316 83.2142 19.8458C83.2142 19.3415 83.0092 18.7762 83.4691 18.3384C83.9347 18.8593 83.8404 19.4966 83.8404 20.1063C83.8404 25.7147 83.8404 31.3213 83.8404 36.926C83.8404 38.9654 83.6853 39.1095 81.668 39.1428H80.3379C80.165 39.153 79.9916 39.1206 79.8336 39.0486C79.1353 38.8269 79.4235 38.2616 79.4235 37.8183C79.4235 31.8514 79.4235 25.8847 79.4235 19.9178C79.4723 19.5215 79.413 19.1194 79.2517 18.754C79.224 18.6266 79.3016 18.5656 79.418 18.5656Z" fill="#39ADE1"/>
<path d="M144.274 28.3802C147.016 23.9467 149.632 19.4522 152.122 14.8967C152.887 14.8967 152.737 15.257 152.482 15.7336C149.999 20.3167 147.455 24.8722 144.535 29.2005C143.909 29.0952 144.197 28.7072 144.274 28.3802Z" fill="#49494A"/>
<path d="M83.7355 18.3217L84.007 18.2939C84.1511 18.4602 84.3229 18.6209 84.2952 18.8758C84.2952 25.3932 84.2952 31.916 84.334 38.4333C84.334 39.2868 84.1068 39.6525 83.2256 39.5417C82.1782 39.4364 81.1141 39.6747 80.0723 39.4142C80.7872 38.5386 81.7348 39.1649 82.5883 39.0097C83.0871 38.9155 83.6967 39.0873 83.6246 38.2504C83.6246 32.0767 83.6246 25.903 83.6246 19.7293C83.5537 19.2578 83.5914 18.7763 83.7355 18.3217Z" fill="#405259"/>
<path d="M124.114 38.7934C125.364 38.412 126.591 37.9568 127.788 37.4301C129.194 36.7826 130.419 35.7969 131.352 34.5611C132.285 33.3253 132.898 31.8777 133.136 30.3475C133.213 30.0526 133.311 29.7637 133.43 29.483C133.696 28.0255 133.43 26.5568 133.563 25.0938C133.574 25.0571 133.594 25.0238 133.621 24.9968C133.648 24.9697 133.682 24.9499 133.718 24.9389C133.755 24.928 133.794 24.9262 133.831 24.9339C133.869 24.9416 133.904 24.9584 133.934 24.9829L133.973 25.4429C134.12 26.7318 134.12 28.0334 133.973 29.3223L133.923 29.7712C133.607 30.1425 133.984 30.6634 133.657 31.0292C132.521 36.1444 128.99 38.4997 124.108 39.2977C124.07 39.2672 124.04 39.2286 124.019 39.1847C123.998 39.1407 123.988 39.0928 123.988 39.0443C123.989 38.9957 124 38.9479 124.022 38.9045C124.044 38.861 124.075 38.8231 124.114 38.7934Z" fill="#494A4B"/>
<path d="M104.164 38.7936C108.791 37.8238 110.725 34.676 111.097 30.259C111.873 30.9019 111.368 31.711 111.379 32.4758C110.93 33.03 111.213 33.7283 110.953 34.349C110.446 35.6987 109.572 36.8803 108.43 37.7614C107.289 38.6424 105.925 39.1879 104.491 39.3367C103.944 39.4479 103.385 39.4815 102.828 39.4365C101.936 39.3866 101.038 39.5473 100.157 39.3367L99.6914 39.2924C99.8965 38.6052 100.379 38.9765 100.8 39.0042H102.867C103.26 38.7548 103.754 39.0153 104.164 38.7936Z" fill="#4D4E50"/>
<path d="M111.395 32.459C111.201 31.7386 111.628 30.9405 111.113 30.2423C111.035 25.1271 110.985 20.0063 111.14 14.8911C111.634 14.8911 111.695 15.207 111.695 15.5949C111.669 20.9595 111.638 26.3167 111.6 31.6665C111.567 31.9384 111.497 32.2048 111.395 32.459Z" fill="#5C5D60"/>
<path d="M144.274 28.3804C144.302 28.6686 144.224 28.9955 144.534 29.2006C144.534 32.2708 144.507 35.341 144.534 38.4057C144.534 39.3645 144.219 39.6416 143.326 39.5695C142.539 39.5086 141.747 39.5695 140.954 39.5695C140.561 39.5695 140.129 39.636 140.09 39.0486C140.967 38.9767 141.848 38.9545 142.728 38.9821C143.764 39.0652 143.991 38.6496 143.969 37.6908C143.908 35.0473 143.941 32.3983 143.969 29.7548C143.986 29.2782 143.825 28.7572 144.274 28.3804Z" fill="#495459"/>
<path d="M64.892 38.7935C66.3384 38.4167 67.7627 37.9955 68.9099 36.9703C69.923 36.0507 70.5764 34.8019 70.7554 33.4456C70.9881 32.9967 70.8219 32.5145 70.8773 32.0546C70.8773 31.7996 70.8773 31.5004 71.2818 31.5835C71.4498 32.3119 71.4592 33.0679 71.3096 33.8003C70.8939 37.0201 68.5829 39.0208 64.9086 39.3422L64.7978 39.2646C64.759 39.1853 64.7401 39.0979 64.7424 39.0097C64.7512 38.9654 64.769 38.9233 64.795 38.8862C64.8205 38.849 64.8538 38.8175 64.892 38.7935Z" fill="#4E5051"/>
<path d="M59.5781 21.525C59.4008 19.4024 60.1323 18.5434 62.4377 18.2829C63.8121 17.834 65.2087 18.161 66.6108 18.0668C66.8768 18.0668 67.165 18.0668 67.4033 18.0668C68.4563 18.0335 69.6644 18.4159 70.5123 17.9227C71.4489 17.3685 70.5567 16.0495 71 15.1517L71.2605 15.0132C71.2782 15.0309 71.2882 15.0547 71.2882 15.0797C71.2882 15.1046 71.2782 15.1285 71.2605 15.1462C71.4572 16.2887 71.4572 17.4563 71.2605 18.5988C69.1767 18.887 67.0763 18.6431 64.987 18.7318C64.1618 18.6707 63.3328 18.7042 62.5153 18.8316C61.4457 19.1253 60.5147 19.5853 60.1212 20.7269C59.7776 20.8765 60.2708 21.6136 59.5781 21.525Z" fill="#4F5254"/>
<path d="M97.2576 30.4805V29.4774C97.0249 26.1522 97.1911 22.8271 97.169 19.5019C97.062 18.0609 97.0991 16.6128 97.2798 15.1792C97.701 15.5782 97.4682 16.0881 97.4738 16.5425C97.522 21.5524 97.5569 26.5623 97.579 31.5722C97.6788 31.8549 97.7952 32.1264 97.302 32.1264C97.2693 32.0466 97.2693 31.9569 97.302 31.877C97.1174 31.4325 97.1019 30.9358 97.2576 30.4805Z" fill="#585A5D"/>
<path d="M97.2853 15.1625C97.2853 19.936 97.2853 24.7076 97.2853 29.4773C97.0027 29.444 96.9473 29.239 96.9473 29.0118L97.0304 14.9353L97.2853 15.1625Z" fill="#423C3A"/>
<path d="M84.2948 18.8758C84.195 18.8179 84.1141 18.7319 84.0631 18.6283C84.0116 18.5249 83.9922 18.4085 84.0066 18.2939H90.5848C90.9118 18.1942 91.2332 18.1055 91.2055 18.6431C89.4266 18.9257 87.6365 18.693 85.8576 18.7761C85.32 18.7872 84.8157 18.8426 84.2948 18.8758Z" fill="#383736"/>
<path d="M79.4168 18.5656L79.2561 18.7485C77.4217 18.7485 75.5873 18.7485 73.7529 18.7485C73.3594 18.7485 72.8385 18.9536 72.6445 18.3329C74.7172 18.1057 76.7954 18.2775 78.8737 18.2331C78.9873 18.226 79.1003 18.2541 79.1979 18.3136C79.2948 18.3731 79.3713 18.4611 79.4168 18.5656Z" fill="#383736"/>
<path d="M55.3947 39.0375C56.159 38.9045 56.941 38.9045 57.7058 39.0375C59.6116 39.2323 61.5319 39.2528 63.4417 39.0984C63.9127 39.006 64.3999 39.0463 64.8493 39.2148C64.877 39.2517 64.8926 39.2962 64.8937 39.3423C61.9121 39.8632 58.9139 39.4808 55.9213 39.5418C55.8526 39.5464 55.7838 39.5367 55.7195 39.5133C55.6553 39.49 55.596 39.4533 55.5466 39.4059C55.4968 39.3584 55.458 39.3011 55.4319 39.2377C55.4059 39.1743 55.393 39.1061 55.3947 39.0375Z" fill="#5D6063"/>
<path d="M124.113 38.7935V39.2867L123.648 39.3366C120.524 39.5084 117.394 39.5084 114.271 39.3366C114.247 39.3436 114.222 39.3411 114.2 39.3297C114.178 39.3183 114.162 39.2989 114.154 39.2756C114.625 38.799 115.229 39.0096 115.773 39.004C117.823 39.004 119.874 39.004 121.93 39.004C122.456 38.7713 123.038 39.0761 123.592 38.8045L124.113 38.7935Z" fill="#454F53"/>
<path d="M114.266 39.2979H123.643C120.572 39.7966 117.485 39.5195 114.41 39.4807C114.36 39.4974 114.31 39.3477 114.266 39.2979Z" fill="#5D656B"/>
<path d="M62.5156 18.8425C63.2361 18.3603 64.0452 18.6208 64.8155 18.6097C66.9603 18.5709 69.1105 18.6097 71.2608 18.6097C70.2577 19.0863 69.1992 18.7704 68.1739 18.8092C66.2897 18.8425 64.3999 18.8425 62.5156 18.8425Z" fill="#5C6770"/>
<path d="M91.2047 18.632C91.0772 18.3716 90.8223 18.3383 90.584 18.2829C91.3044 17.2299 90.6449 16.0162 90.983 14.9189C91.1105 14.9522 91.3377 14.9744 91.3432 15.0242C91.515 16.2324 91.8032 17.4516 91.2047 18.632Z" fill="#5E5856"/>
<path d="M83.7753 38.7546C84.0523 39.4806 83.4594 39.2423 83.1656 39.27C82.1404 39.3809 81.0874 39.0927 80.0677 39.4363C79.8405 39.392 79.8682 39.2035 79.8516 39.0428C79.8865 39.0499 79.9231 39.0469 79.9563 39.0342C79.9896 39.0214 80.0184 38.9994 80.04 38.9708C81.2758 38.7158 82.5505 39.0872 83.7753 38.7546Z" fill="#444E52"/>
<path d="M100.765 38.9764C100.416 39.1094 99.9726 38.8877 99.6567 39.2645C99.0654 39.2709 98.4863 39.0989 97.9941 38.7713C98.0385 38.6051 98.1992 38.5829 98.3156 38.4998L100.765 38.9764Z" fill="#6B7177"/>
<path d="M133.973 29.2893C133.973 28.0035 133.973 26.7123 133.973 25.4099C134.268 26.6862 134.268 28.013 133.973 29.2893Z" fill="#5A6065"/>
<path d="M71.2656 18.5821V15.1295C71.5954 16.2568 71.5954 17.4549 71.2656 18.5821Z" fill="#5C6770"/>
<path d="M138.196 17.9338C137.603 17.507 137.431 16.8254 137.115 16.2158C137.198 16.1049 137.226 15.9442 137.392 15.9165C137.764 16.5483 138.257 17.1302 138.196 17.9338Z" fill="#9A9A9E"/>
<path d="M71.2821 31.5889C70.6669 32.0877 71.3209 32.9411 70.7556 33.451C70.8941 32.5643 70.4508 31.6332 70.9828 30.7798C71.0549 31.0347 71.465 31.201 71.2821 31.5889Z" fill="#686E73"/>
<path d="M59.5781 21.5248L60.1323 20.7212L60.3817 22.8216C60.1456 22.6951 59.9467 22.5086 59.8059 22.281C59.6646 22.0533 59.5864 21.7924 59.5781 21.5248Z" fill="#767B80"/>
<path d="M100.15 39.3087L102.866 39.281C102.949 39.3309 102.982 39.3808 102.949 39.4362C102.916 39.4916 102.894 39.5082 102.866 39.5082C101.958 39.6561 101.027 39.5878 100.15 39.3087Z" fill="#616366"/>
<path d="M57.6543 26.5237C58.3637 26.7121 59.1118 26.8285 59.4499 27.6321C58.7383 27.4882 58.1021 27.0952 57.6543 26.5237Z" fill="#8495A3"/>
<path d="M137.414 15.9163L137.137 16.2156C136.87 15.8237 136.696 15.3766 136.627 14.9077C137.225 14.9631 137.264 15.473 137.414 15.9163Z" fill="#858F98"/>
<path d="M133.098 22.5834C132.901 22.298 132.807 21.9539 132.832 21.608C132.774 21.5029 132.747 21.3833 132.755 21.2635C132.763 21.1435 132.805 21.0285 132.877 20.9319C133.226 21.3026 133.424 21.7912 133.431 22.3007C133.325 22.406 133.281 22.5723 133.098 22.5834Z" fill="#777B82"/>
<path d="M133.098 22.5832L133.419 22.3005C133.661 22.7009 133.753 23.1742 133.68 23.6361C132.981 23.553 133.175 22.9988 133.098 22.5832Z" fill="#485B64"/>
<path d="M59.4395 27.6043C60.1688 27.5452 60.8981 27.7241 61.5177 28.1142C61.3908 28.2146 61.2356 28.2719 61.0743 28.2779C60.9125 28.2838 60.7534 28.2382 60.6199 28.1474C60.2098 28.0089 59.7387 27.9867 59.4395 27.6043Z" fill="#547282"/>
<path d="M70.4288 29.7434L69.6641 28.0808C70.1662 28.3942 70.5414 28.8751 70.7226 29.4386C70.6505 29.5771 70.6173 29.7434 70.4288 29.7434Z" fill="#7E91A0"/>
<path d="M139.272 20.4276C139.067 20.0175 138.651 19.6628 138.895 19.1252C139.07 19.2408 139.218 19.3935 139.329 19.5725C139.439 19.7516 139.508 19.9527 139.532 20.1616C139.632 20.4387 139.51 20.5052 139.272 20.4276Z" fill="#949AA2"/>
<path d="M139.27 20.4274L139.53 20.1614C139.731 20.3466 139.883 20.5786 139.973 20.8367C140.063 21.0948 140.088 21.3711 140.045 21.6411C139.685 21.312 139.417 20.8932 139.27 20.4274Z" fill="#7F92A2"/>
<path d="M97.3066 32.1431C97.4009 31.9546 97.4895 31.7607 97.5837 31.5889L97.883 32.6086C97.929 32.7116 97.9478 32.8247 97.9384 32.9372C97.9284 33.0497 97.8908 33.1578 97.8276 33.2514C97.6707 33.1113 97.5433 32.9409 97.4541 32.7504C97.3643 32.5599 97.3144 32.3534 97.3066 32.1431Z" fill="#6D7982"/>
<path d="M71.3109 33.8056C71.3109 33.0686 71.3109 32.3315 71.2832 31.5889C71.5542 32.3013 71.5636 33.0866 71.3109 33.8056Z" fill="#686E73"/>
<path d="M62.0938 28.6795C62.7754 28.2583 63.1689 28.5631 63.4238 29.2337C62.8696 29.3113 62.5094 28.9233 62.0938 28.6795Z" fill="#6D7C87"/>
<path d="M60.6211 28.1475L61.5189 28.1143C61.8902 28.1143 62.0287 28.3803 62.1174 28.6685C61.5804 28.6363 61.0622 28.456 60.6211 28.1475Z" fill="#727A81"/>
<path d="M98.3434 38.4997L98.022 38.7713C97.8208 38.7667 97.6241 38.714 97.4473 38.6175C97.2711 38.5211 97.1203 38.3838 97.0078 38.2171C97.4728 38.1382 97.9499 38.2393 98.3434 38.4997Z" fill="#75838E"/>
<path d="M70.4297 29.7435L70.7234 29.4553C70.8592 29.6084 70.9534 29.7935 70.9983 29.9932C71.0426 30.1929 71.036 30.4007 70.9783 30.597C70.4629 30.5249 70.5073 30.0926 70.4297 29.7435Z" fill="#6D767E"/>
<path d="M95.916 37.408C96.1588 37.4279 96.3915 37.5152 96.5871 37.6601C96.7828 37.805 96.9346 38.0018 97.0244 38.2282C96.7916 38.1787 96.5722 38.0799 96.381 37.9384C96.1898 37.7969 96.0313 37.616 95.916 37.408Z" fill="#588197"/>
<path d="M102.867 39.5082V39.281L104.53 39.3087C104.003 39.5191 103.429 39.5879 102.867 39.5082Z" fill="#5F666C"/>
<path d="M133.929 24.9388H133.685C133.408 24.7338 133.641 24.3846 133.441 24.1352L133.674 23.5811C133.814 23.7746 133.91 23.9966 133.954 24.2314C133.998 24.4662 133.99 24.7077 133.929 24.9388Z" fill="#726A67"/>
<path d="M132.874 20.9319C132.874 21.1591 132.846 21.3808 132.83 21.608C132.543 21.2679 132.374 20.8441 132.348 20.3999C132.664 20.4442 132.863 20.5939 132.874 20.9319Z" fill="#587888"/>
<path d="M97.8281 33.2183C97.8281 33.0022 97.8669 32.7916 97.8835 32.5754C98.0553 32.9634 98.2216 33.3513 98.3934 33.7448C98.2604 33.7156 98.1379 33.6514 98.0387 33.5588C97.9395 33.4662 97.8664 33.3486 97.8281 33.2183Z" fill="#8D969F"/>
<path d="M63.4238 29.2061C63.9392 29.0287 64.366 29.0343 64.4491 29.7215L63.4238 29.2061Z" fill="#84929E"/>
<path d="M133.656 30.9961C133.695 30.5638 133.501 30.0872 133.922 29.738C133.974 29.9543 133.977 30.1794 133.931 30.397C133.885 30.6145 133.791 30.8192 133.656 30.9961Z" fill="#5A6065"/>
<path fill-rule="evenodd" clip-rule="evenodd" d="M113.683 37.9386C113.678 38.4227 113.674 38.8986 114.138 39.2367C115.762 39.3078 117.382 39.3014 119.009 39.2949C119.921 39.2913 120.834 39.2877 121.753 39.2977C122.111 39.2261 122.475 39.188 122.839 39.15C123.067 39.1263 123.294 39.1025 123.521 39.0704C123.731 39.0372 123.947 39.0372 124.163 39.0372C124.476 38.9583 124.786 38.8655 125.096 38.7726C125.373 38.6894 125.651 38.6062 125.931 38.5329C130.093 37.4356 133.164 34.0495 133.69 29.2446C133.845 28.1992 133.794 27.1514 133.742 26.1028C133.716 25.5781 133.69 25.0533 133.69 24.5284C133.72 24.2355 133.72 23.9402 133.69 23.6473C133.456 23.471 133.419 23.2139 133.384 22.9685C133.361 22.8127 133.34 22.6616 133.269 22.5389C133.177 22.3808 133.158 22.2032 133.139 22.025C133.119 21.8472 133.1 21.6686 133.008 21.5081C132.813 21.1266 132.597 20.7565 132.36 20.3997C130.836 17.2574 128.109 15.6059 124.884 14.9076C122.796 14.4556 120.678 14.4982 118.559 14.541C117.405 14.5642 116.251 14.5875 115.102 14.5308C114 14.4809 113.684 14.83 113.684 15.9384C113.702 20.793 113.696 25.6499 113.69 30.5078C113.686 32.937 113.684 35.3664 113.684 37.7958C113.684 37.8434 113.683 37.891 113.683 37.9386ZM129.024 27.8979C129.212 25.0382 128.996 22.1342 126.508 20.0505C126.202 19.645 125.758 19.4896 125.321 19.3364C125.101 19.2593 124.883 19.1827 124.684 19.0751C124.5 18.9768 124.298 18.9714 124.094 18.9659C123.919 18.9611 123.743 18.9563 123.576 18.8922C123.203 18.8512 122.831 18.7934 122.458 18.7355C121.118 18.5278 119.778 18.32 118.439 18.8922C118.294 19.166 118.234 19.4766 118.267 19.7845V33.994C118.226 34.3822 118.318 34.7729 118.527 35.1024C124.33 35.8284 128.625 33.7945 129.024 27.8979Z" fill="#30AAE2"/>
<path d="M118.572 18.9313L118.539 35.0804C117.802 35.1303 117.985 34.5761 117.985 34.1771C117.985 29.1894 117.985 24.246 117.985 19.2804C117.985 18.4713 118.234 18.1221 119.055 18.2884C119.891 18.1503 120.745 18.1503 121.582 18.2884C121.875 18.2884 122.197 18.1776 122.335 18.571C121.515 18.9146 120.673 18.6265 119.808 18.7317C119.359 18.7761 118.899 18.5212 118.572 18.9313Z" fill="#485056"/>
<path d="M118.57 18.9313C119.751 18.172 121.064 18.7927 122.289 18.5655C122.804 18.3272 123.331 18.0113 123.591 18.8703C121.895 18.9146 120.233 18.7151 118.57 18.9313Z" fill="#5C656B"/>
<path d="M133.44 24.1738C133.723 24.3844 133.651 24.6948 133.684 24.9774C133.546 26.4682 133.967 27.9922 133.424 29.4608L133.44 24.1738Z" fill="#5A6065"/>
<path d="M126.509 20.0508L124.586 19.1973C124.586 18.9978 124.791 18.9756 124.913 18.887C125.523 19.1696 126.237 19.3081 126.509 20.0508Z" fill="#7B8C99"/>
<path d="M121.525 18.2884H118.998C119.823 18.0432 120.701 18.0432 121.525 18.2884Z" fill="#5C656B"/>
<path d="M124.911 18.8869L124.584 19.1972C124.229 19.1141 123.83 19.1972 123.559 18.8591C124.019 18.51 124.467 18.7095 124.911 18.8869Z" fill="#576772"/>
<path d="M123.559 38.7935C123.055 39.2092 122.451 39.0041 121.896 38.9931C122.425 38.7882 122.997 38.7196 123.559 38.7935Z" fill="#5D656B"/>
<path d="M104.163 38.7936C103.759 39.1483 103.276 39.0042 102.816 38.982C103.234 38.7768 103.705 38.7107 104.163 38.7936Z" fill="#5F666C"/>
<path d="M97.2569 30.4805C97.2569 30.946 97.2569 31.4115 97.2569 31.8715C97.0685 31.4171 96.7471 30.9571 97.2569 30.4805Z" fill="#48565E"/>
<path d="M70.9998 15.1351C70.9998 18.3384 70.9998 18.3439 67.8631 18.3384C66.0564 18.3384 64.2497 18.2996 62.4375 18.2829L62.5594 18.089C64.2663 17.7509 65.9843 18.028 67.6968 17.9338C68.6999 17.8728 69.7196 18.0834 70.7171 17.8008C70.9111 16.9252 70.4899 15.9775 70.9998 15.1351Z" fill="#5C6770"/>
<path d="M70.7161 17.8008C70.5498 18.2718 70.1619 18.1167 69.8183 18.1167C67.402 18.1167 64.9802 18.1167 62.5584 18.1167L62.043 18.0557V17.8285L70.7161 17.8008Z" fill="#39AFE4"/>
<path d="M64.8662 39.1925L58.4376 39.259C58.3079 39.2772 58.1754 39.2647 58.0513 39.2224C57.9272 39.18 57.8147 39.109 57.7227 39.0151H63.2646C63.7822 38.8267 64.3491 38.8267 64.8662 39.0151C64.8745 39.074 64.8745 39.1337 64.8662 39.1925Z" fill="#44403F"/>
<path d="M64.8926 39.015H63.291C63.7959 38.8002 64.349 38.7255 64.8926 38.7989C64.8982 38.8598 64.8926 38.9374 64.8926 39.015Z" fill="#5D6063"/>
<path d="M42.0939 47.2227L41.8279 48.0263C41.0798 48.453 40.6641 49.2732 39.8716 49.639L39.5668 50.1544C38.9184 50.2818 38.6247 50.897 38.1148 51.2129L37.8377 51.4844C37.3842 51.6424 36.9523 51.8565 36.552 52.1218C36.225 52.3878 35.7872 52.4487 35.4436 52.7258C35.1 53.0029 34.6511 53.0473 34.2964 53.28C33.2959 53.833 32.2287 54.2558 31.1209 54.538C30.6275 54.7081 30.1217 54.8396 29.608 54.9315C28.6981 55.1668 27.7718 55.3335 26.837 55.4302C26.7017 55.4247 26.5677 55.4025 26.438 55.3638C25.0799 55.2278 23.7116 55.2278 22.3536 55.3638C22.2205 55.4034 22.0823 55.4241 21.9435 55.4247C20.5925 55.2907 19.2602 55.0102 17.9699 54.5879L16.8615 54.2499C16.2616 54.0599 15.6763 53.8266 15.1103 53.5516C14.1023 53.193 13.1577 52.6767 12.3116 52.022H12.0567C11.6987 51.7109 11.3191 51.4257 10.9206 51.1685C10.6328 50.9703 10.3554 50.7576 10.0893 50.5312C9.50904 50.1583 8.98627 49.7028 8.53754 49.179C8.17177 48.8021 7.806 48.4364 7.42915 48.0706C6.99505 47.6699 6.6049 47.224 6.26534 46.7405C5.34271 45.5923 4.53524 44.356 3.8546 43.0496C3.41338 42.2617 3.04248 41.4365 2.74622 40.5835C2.27968 39.3588 1.91995 38.0961 1.67108 36.8094C1.4882 35.4682 1.29423 34.1548 1.08364 32.8303C1.08364 32.664 1.08364 32.5033 1.08364 32.3371C1.08364 22.8271 1.08364 13.3153 1.08364 3.80166C1.00995 3.14279 1.06835 2.47584 1.25544 1.83981C1.46049 1.45188 1.80963 1.48513 2.18094 1.49067C17.2328 1.49067 32.2903 1.44079 47.3421 1.52392C48.179 1.9839 48.0183 2.79857 48.0183 3.52456C48.0183 10.0936 48.0183 16.6608 48.0183 23.2261C48.0183 25.3819 47.9351 27.5488 48.0183 29.6991C48.1069 31.4781 47.658 33.185 47.586 34.9362C47.4028 35.4384 47.3145 35.9702 47.3255 36.5046C46.8814 38.8484 46.0934 41.1136 44.9868 43.227C44.4148 44.2641 43.78 45.2654 43.0859 46.2251C42.8412 46.6332 42.5007 46.9756 42.0939 47.2227Z" fill="#383736"/>
<path d="M47.3362 1.6624C32.5577 1.6624 17.7626 1.6624 2.95084 1.6624C2.44098 1.6624 1.88679 1.47952 1.42681 1.88962C1.38289 1.92973 1.32557 1.95197 1.26609 1.95197C1.20662 1.95197 1.14929 1.92973 1.10538 1.88962C1.07784 1.85077 1.05829 1.80684 1.04784 1.76039C1.03739 1.71393 1.03626 1.66586 1.0445 1.61896C1.05275 1.57207 1.07021 1.52726 1.09588 1.48716C1.12155 1.44705 1.15492 1.41244 1.19405 1.3853L32.2289 1.35205C37.3607 1.35205 42.487 1.35205 47.6188 1.35205C47.6853 1.6624 47.5856 1.72336 47.3362 1.6624Z" fill="#777776"/>
<path d="M47.3359 1.66269L47.6352 1.37451L47.9511 1.59619C48.1811 2.07882 48.2585 2.62018 48.1728 3.14793C48.1728 12.6468 48.1728 22.1475 48.1728 31.6501C48.2653 32.1765 48.1795 32.7187 47.9289 33.1908C47.8125 33.8946 48.0896 34.6427 47.6851 35.3189C47.6663 35.341 47.643 35.3588 47.6167 35.3711C47.5904 35.3833 47.5617 35.3896 47.5327 35.3896C47.5036 35.3896 47.475 35.3833 47.4487 35.3711C47.4223 35.3588 47.399 35.341 47.3803 35.3189C47.9345 24.6562 47.4967 13.988 47.6241 3.31973C47.6352 2.73783 47.735 2.14484 47.3359 1.66269Z" fill="#6C6C6B"/>
<path d="M0.911526 34.2269C0.390584 34.1881 0.651055 33.7891 0.651055 33.5729C0.651055 23.1984 0.651055 12.8239 0.651055 2.44945C0.651055 2.06706 0.529133 1.64033 0.939236 1.34106C1.11795 1.93169 1.19845 2.54765 1.17754 3.16436C1.17754 13.0438 1.17754 22.9269 1.17754 32.8137C1.26762 33.3014 1.17278 33.8052 0.911526 34.2269Z" fill="#30302F"/>
<path d="M0.910156 34.2268V1.3576C0.998744 1.35215 1.08758 1.35215 1.17617 1.3576V1.84529C1.33517 2.32163 1.37513 2.82965 1.29255 3.32499C1.29255 12.6243 1.29255 21.9255 1.29255 31.2286C1.21076 31.7078 1.25273 32.2 1.41447 32.6584V32.9411C1.07641 33.3401 1.51977 33.8998 1.13738 34.2878L0.910156 34.2268Z" fill="#5C5C5B"/>
<path d="M48.1894 1.61812C48.605 1.53499 48.4498 1.8675 48.4498 2.02268C48.4498 12.5745 48.4498 23.1338 48.4498 33.7003C48.3446 33.6394 48.2393 33.6172 48.2226 33.5673C48.1982 33.4376 48.1852 33.3059 48.1838 33.1739C48.0345 32.8523 47.9843 32.4934 48.0397 32.1431V2.64892C47.9832 2.2981 48.0354 1.93838 48.1894 1.61812Z" fill="#383736"/>
<path d="M48.1888 1.61846V33.1742H47.9395V1.58521L48.1888 1.61846Z" fill="#4C4C4B"/>
<path d="M44.7422 43.2713C45.8007 41.1589 46.5991 38.9257 47.1197 36.621C47.358 36.5767 47.5021 36.621 47.3801 36.9037C47.0731 39.2651 46.2623 41.533 45.0027 43.554C44.8641 43.5373 44.8142 43.3822 44.7422 43.2713Z" fill="#6D6D6C"/>
<path d="M27.4966 55.4857C25.542 55.8847 23.5269 55.8847 21.5723 55.4857C21.6942 55.253 21.9879 55.3804 22.1265 55.2197V55.1421C23.6213 55.0008 25.1261 55.0008 26.621 55.1421V55.2142C26.9036 55.4192 27.2805 55.1975 27.4966 55.4857Z" fill="#656564"/>
<path d="M1.15022 34.2713C1.24997 33.8224 0.983958 33.3014 1.42731 32.9246C1.59911 34.2546 1.76537 35.5791 1.93717 36.9092C1.71549 37.1309 1.93717 37.5022 1.68778 37.7128C1.31014 36.6055 1.12824 35.4409 1.15022 34.2713Z" fill="#666665"/>
<path d="M4.06388 43.0053L6.42476 46.7295C6.41335 46.7735 6.3904 46.8136 6.3582 46.8458C6.32606 46.8779 6.28588 46.9009 6.24188 46.9123C5.20293 45.8696 4.37664 44.6349 3.80895 43.2768C3.68703 42.9942 3.85329 42.9554 4.06388 43.0053Z" fill="#727170"/>
<path d="M1.6875 37.713C1.72075 37.4304 1.64316 37.1089 1.93689 36.9094L3.00094 40.617C2.92889 40.7334 2.90672 40.8885 2.73493 40.9162C2.19787 39.9194 1.84316 38.8346 1.6875 37.713Z" fill="#696968"/>
<path d="M22.1423 55.2254L21.5881 55.4914C20.3168 55.4959 19.0591 55.2313 17.8971 54.7155C17.753 54.6121 17.753 54.5124 17.8971 54.4163C19.2908 54.7881 20.7095 55.0586 22.1423 55.2254Z" fill="#706F6F"/>
<path d="M31.1744 54.4495L34.3333 53.0696C34.405 53.0803 34.4715 53.1134 34.5233 53.1641C34.575 53.2149 34.6094 53.2807 34.6215 53.3522C33.5761 54.0396 32.3912 54.4863 31.1522 54.6601C31.1268 54.6471 31.1067 54.6255 31.0956 54.5992C31.0844 54.5728 31.0829 54.5434 31.0913 54.516C31.1356 54.4717 31.1522 54.4495 31.1744 54.4495Z" fill="#71706F"/>
<path d="M44.7433 43.2715L45.0037 43.5597C44.5152 44.6054 43.8849 45.5789 43.1306 46.4526C43.0735 46.4278 43.0223 46.3913 42.9803 46.3455C42.9383 46.2997 42.9064 46.2455 42.8867 46.1865L44.7433 43.2715Z" fill="#717170"/>
<path d="M2.74609 40.9162L3.01211 40.6169L4.06507 43.0055C3.98194 43.0942 3.89882 43.1884 3.81014 43.2771C3.26484 42.5908 2.89914 41.7794 2.74609 40.9162Z" fill="#6D6D6C"/>
<path d="M12.332 52.0168L15.2249 53.3746C15.2582 53.6185 15.2249 53.7681 14.9257 53.6462C14.0112 53.2028 12.853 53.1031 12.332 52.0168Z" fill="#727271"/>
<path d="M27.4954 55.4857C27.2072 55.4414 26.8802 55.519 26.6641 55.2308C27.6623 55.1836 28.6508 55.0123 29.6068 54.7209C29.8451 54.8983 30.1943 54.6711 30.4104 54.9426C29.473 55.2748 28.4894 55.458 27.4954 55.4857Z" fill="#6E6E6D"/>
<path d="M39.8438 49.6391C40.4478 49.0461 40.8191 48.1705 41.8001 48.0264C41.2403 48.6748 40.8191 49.495 39.8438 49.6391Z" fill="#727171"/>
<path d="M8.62094 49.0905L10.1949 50.4317C10.1729 50.4872 10.1384 50.5371 10.0943 50.5775C10.0501 50.6178 9.99728 50.6475 9.93992 50.6644C9.29146 50.2584 8.72707 49.7316 8.27734 49.1127C8.29297 49.0815 8.31647 49.0551 8.34545 49.0359C8.37449 49.0166 8.40802 49.0053 8.44277 49.0031C8.47752 49.0008 8.51227 49.0078 8.54347 49.0231C8.57472 49.0384 8.60144 49.0616 8.62094 49.0905Z" fill="#767575"/>
<path d="M47.3804 36.9147L47.1199 36.632C47.1754 36.1831 46.9592 35.6844 47.3693 35.302H47.6741C47.5578 35.8451 47.8071 36.4381 47.3804 36.9147Z" fill="#6D6C6B"/>
<path d="M6.24219 46.9125L6.42507 46.7296L7.53346 48.0043C7.56156 48.0266 7.58367 48.0556 7.59774 48.0886C7.61188 48.1216 7.61753 48.1576 7.6142 48.1934C7.61093 48.2291 7.59874 48.2635 7.57885 48.2933C7.55895 48.3232 7.53191 48.3476 7.50021 48.3645C6.96474 47.9947 6.53192 47.4951 6.24219 46.9125Z" fill="#757474"/>
<path d="M14.9375 53.6461L15.2368 53.3745L16.8993 54.1116C16.8661 54.2668 16.7054 54.2889 16.6056 54.3776C16.0096 54.2375 15.4443 53.9896 14.9375 53.6461Z" fill="#6C6B6B"/>
<path d="M38.0859 51.213C38.3741 50.5978 38.7011 50.027 39.5379 50.1545C39.1112 50.5867 38.7676 51.1354 38.0859 51.213Z" fill="#727271"/>
<path d="M10.9753 50.9856C11.4131 51.2516 11.9507 51.4179 12.0837 52.0164C11.5501 51.9202 11.0664 51.6421 10.7148 51.2294C10.739 51.173 10.7746 51.1221 10.8195 51.0801C10.8643 51.0382 10.9173 51.006 10.9753 50.9856Z" fill="#6D6C6C"/>
<path d="M34.6443 53.3522L34.334 53.0696L35.398 52.5154C35.4679 52.5234 35.533 52.5544 35.5832 52.6036C35.6333 52.6528 35.6657 52.7173 35.6751 52.7869C35.3988 53.0781 35.0384 53.2757 34.6443 53.3522Z" fill="#7A7A79"/>
<path d="M30.411 54.9427C30.1284 54.9427 29.8236 54.9926 29.6074 54.721L31.1758 54.4495V54.6601C31.0095 54.9593 30.6936 54.9372 30.411 54.9427Z" fill="#706F6F"/>
<path d="M35.699 52.8146L35.4219 52.5429L36.4859 51.9888C36.763 51.8779 36.8018 51.9888 36.7409 52.2382L35.699 52.8146Z" fill="#7C7B7B"/>
<path d="M36.7393 52.2605L36.4844 52.0111C36.6405 51.816 36.8448 51.6649 37.077 51.5726C37.3092 51.4803 37.5614 51.45 37.8089 51.4846L36.7393 52.2605Z" fill="#6F6F6E"/>
<path d="M7.52344 48.3644L7.55669 48.0042L8.62074 49.1125H8.28268L7.52344 48.3644Z" fill="#717070"/>
<path d="M42.8847 46.1865L43.1285 46.4525C42.8625 46.8349 42.6741 47.3171 42.0645 47.2229C42.3415 46.8793 42.6131 46.5523 42.8847 46.1865Z" fill="#777676"/>
<path d="M16.5996 54.3773L16.8933 54.1113L17.9186 54.4161V54.7154L16.5996 54.3773Z" fill="#737272"/>
<path d="M10.9738 50.9857L10.7078 51.2296L9.9375 50.6754L10.1924 50.4426L10.9738 50.9857Z" fill="#7A7A79"/>
<path d="M83.7743 38.7547C82.5551 39.2645 81.286 38.8988 80.0391 38.9708C80.6819 38.5275 81.419 38.7214 82.0896 38.7713C83.198 38.8489 83.5194 38.4997 83.5083 37.3803C83.4584 31.0292 83.5083 24.6782 83.5083 18.3271C83.5931 18.3216 83.6784 18.3216 83.7632 18.3271C83.756 25.1363 83.7599 31.9455 83.7743 38.7547Z" fill="#2F91BC"/>
<path d="M27.191 41.9414C29.3247 41.0491 30.4663 38.8711 30.3943 35.8452C30.1781 35.5792 30.2502 35.2578 30.2502 34.953C30.2502 28.5133 30.2502 22.0717 30.2502 15.6283C30.2502 15.3013 30.095 14.9134 30.4552 14.6474L30.7323 14.4091C32.9698 14.1264 35.2339 14.1264 37.4713 14.4091C38.0699 14.6751 37.8981 15.2182 37.9036 15.6782C37.9036 22.6665 37.9479 29.6494 37.9036 36.6322C37.8426 44.1249 33.0433 48.8245 25.5285 48.9297C24.7803 48.9297 24.0266 48.9297 23.2729 48.9297C16.0462 48.697 11.3688 44.3355 11.1361 37.1642C10.9033 29.8322 11.0585 22.4892 11.0585 15.1517C11.0961 14.8947 11.1708 14.6446 11.2802 14.4091C13.5429 14.1153 15.8341 14.1153 18.0967 14.4091C18.7174 14.7527 18.4791 15.3456 18.4791 15.8389C18.4791 22.2453 18.4791 28.6536 18.4791 35.0638C18.4429 36.3485 18.6151 37.6305 18.989 38.8601C19.1375 39.4129 19.3949 39.9304 19.7461 40.3824C20.0972 40.8345 20.5351 41.2118 21.034 41.4925C22.9936 42.2617 25.1405 42.4182 27.191 41.9414Z" fill="white"/>
<path d="M8.32691 12.4195C7.99439 15.1904 8.18282 17.9614 8.22715 20.7324C8.22715 21.741 9.10278 22.5279 9.56276 23.4257C10.1557 24.5729 9.96732 24.8944 8.64834 24.9165C7.76717 24.9165 6.88601 24.9165 6.00484 24.9165C4.7191 24.9165 4.54176 24.5563 5.14583 23.3814C5.5116 22.6831 5.87737 21.9848 6.25423 21.2866C6.70312 20.9097 6.54241 20.3888 6.54241 19.9288C6.54241 16.5371 6.54241 13.1455 6.54241 9.75379C6.54241 9.33261 6.38169 8.87263 6.71421 8.49023L6.86384 8.69529C6.86384 12.3585 6.86384 16.0162 6.86384 19.6794C6.86384 19.8567 7.12985 19.6406 6.95805 19.6794C6.91372 19.6794 6.88601 19.6794 6.88601 19.5741C6.88601 16.393 6.88601 13.212 6.88601 10.0309C6.88601 8.52903 6.88601 8.5124 8.46546 8.5124H32.3401C34.374 8.5124 36.4079 8.5124 38.4362 8.5124C40.0988 8.5124 40.1819 8.57891 40.193 10.175C40.193 12.1922 40.193 12.2033 38.1148 12.2033H10.261C9.68756 12.17 9.1122 12.1922 8.54304 12.2698L8.32691 12.4195Z" fill="#30AAE1"/>
<path d="M6.71484 8.47912C7.0917 8.12444 7.55722 8.29624 7.9784 8.29624C18.364 8.29624 28.7496 8.29624 39.1351 8.26298C40.2435 8.26298 40.5428 8.56779 40.5206 9.65955C40.4541 12.4305 40.5206 12.4305 37.7497 12.4305L8.322 12.4028C8.67669 11.7821 9.26967 12.098 9.7352 12.098C19.3671 12.0758 28.9989 12.0758 38.6308 12.098C40.0606 12.098 40.0606 12.098 40.0606 10.6682C40.0606 8.63984 40.0606 8.63984 38.0378 8.63984C28.0956 8.63984 18.1534 8.63984 8.21117 8.63984C7.72963 8.70451 7.24016 8.67442 6.77026 8.55116L6.71484 8.47912Z" fill="#30AAE1"/>
<path d="M1.42707 32.6419C1.02251 32.2927 1.17768 31.8161 1.17768 31.3949C1.17768 21.5598 1.17768 11.7192 1.17768 1.87305H1.42707V32.6419Z" fill="#686867"/>
<path d="M10.6638 14.6917V37.4136H10.4199V14.6917H10.6638Z" fill="#383736"/>
<path d="M18.9217 14.9632V35.7455H18.8164V14.9133L18.9217 14.9632Z" fill="#383736"/>
<path d="M30.4537 14.6362C30.4537 21.5304 30.4537 28.4246 30.4537 35.3187C30.4377 35.4926 30.4081 35.6649 30.365 35.8341C29.9383 35.5016 30.0879 35.025 30.0879 34.6038C30.0879 28.3414 30.0879 22.079 30.0879 15.8167C30.1156 15.4066 29.9383 14.9133 30.4537 14.6362Z" fill="#2C2C2C"/>
<path d="M6.23672 21.2755C6.1425 21.0816 5.9707 20.8931 5.9707 20.7213C5.9707 16.6702 5.9707 12.619 6.23672 8.56787V21.3143V21.2755Z" fill="#343331"/>
<path d="M27.1909 41.9415C25.0684 42.8172 23.0123 42.7894 21.0449 41.4926C21.1336 41.343 21.2666 41.1435 21.4384 41.2377C23.1564 42.1244 24.9409 42.0856 26.7642 41.7032C26.8861 41.6755 27.0468 41.8584 27.1909 41.9415Z" fill="#373736"/>
<path d="M37.4704 14.4091C35.2257 14.5338 32.976 14.5338 30.7314 14.4091C30.3933 14.0932 30.5873 13.9602 30.9198 13.9879C33.0948 14.1486 35.2787 14.1486 37.4537 13.9879C37.6422 13.9879 37.9359 13.8715 37.8195 14.2484C37.7973 14.326 37.5923 14.3426 37.4704 14.4091Z" fill="#333232"/>
<path d="M18.0959 14.4088C15.8252 14.5252 13.55 14.5252 11.2793 14.4088C11.4899 14.0098 11.8667 14.0874 12.2103 14.0874C14.1556 14.0874 16.0897 14.0874 18.0515 14.0874C18.0792 14.0874 18.1402 14.1317 18.1402 14.1539C18.1321 14.2399 18.1173 14.3251 18.0959 14.4088Z" fill="#383736"/>
<path d="M26.6524 55.1588H22.1523C23.6297 54.7902 25.175 54.7902 26.6524 55.1588Z" fill="#2E2E2E"/>
<path d="M6.7793 8.5458C17.5639 8.5458 28.3467 8.531 39.1276 8.50146C39.909 8.50146 40.2359 8.7176 40.2359 9.54889C40.1584 12.874 40.6128 12.2035 37.6035 12.2146C28.3707 12.2423 19.1323 12.2146 9.89386 12.2146C9.37846 12.2146 8.82981 12.0649 8.34766 12.403C8.08165 12.1702 8.20911 12.0095 8.47513 11.9763C8.87138 11.9429 9.26918 11.9319 9.66664 11.943C19.2726 11.943 28.8787 11.943 38.4847 11.943C38.9668 11.943 39.7095 12.2478 39.8813 11.5883C40.1229 10.7359 40.1036 9.83053 39.8258 8.98915C39.7095 8.67881 39.2716 8.77856 38.9779 8.77856C28.6699 8.77856 18.3638 8.77856 8.05948 8.77856C7.20048 8.77856 7.03977 9.14987 7.04531 9.88695C7.04531 13.1567 7.04531 16.4264 7.04531 19.6962V20.9819H6.81255L6.7793 8.5458Z" fill="#37AEE4"/>
<path d="M55.4704 46.8665V48.7968L57.3868 46.8665H58.0618L55.9559 48.9655L58.1294 51.3683H57.4411L55.5984 49.303L55.4704 49.4312V51.3683H54.9707V46.8665H55.4704Z" fill="#383736"/>
<path d="M62.2836 50.7809C61.8336 51.2263 61.2805 51.449 60.6233 51.449C59.9666 51.449 59.4107 51.2263 58.9563 50.7809C58.5063 50.3354 58.2812 49.782 58.2812 49.1205C58.2812 48.4546 58.5085 47.9012 58.9629 47.4602C59.4173 47.0147 59.971 46.792 60.6233 46.792C61.2761 46.792 61.8292 47.0147 62.2836 47.4602C62.7381 47.9012 62.9653 48.4546 62.9653 49.1205C62.9653 49.782 62.7381 50.3354 62.2836 50.7809ZM61.9195 47.8044C61.5637 47.4444 61.132 47.2644 60.6233 47.2644C60.1151 47.2644 59.6828 47.4444 59.3276 47.8044C58.9723 48.1644 58.7944 48.6031 58.7944 49.1205C58.7944 49.638 58.9723 50.0767 59.3276 50.4366C59.6828 50.7966 60.1151 50.9766 60.6233 50.9766C61.132 50.9766 61.5637 50.7966 61.9195 50.4366C62.2748 50.0767 62.4527 49.638 62.4527 49.1205C62.4527 48.6031 62.2748 48.1644 61.9195 47.8044Z" fill="#383736"/>
<path d="M64.2392 51.3682H63.7266L64.4758 46.6166L66.2032 50.4165L67.965 46.6099L68.6672 51.3682H68.154L67.7289 48.2365L66.1966 51.5571L64.6848 48.2365L64.2392 51.3682Z" fill="#383736"/>
<path d="M69.709 46.8665H73.0159V51.3683H72.5165V47.3389H70.2083V51.3683H69.709V46.8665Z" fill="#383736"/>
<path d="M74.6771 48.7426H75.3659C75.4468 48.1801 75.6962 47.7144 76.1146 47.3455C76.538 46.9765 77.0462 46.792 77.6403 46.792C78.3059 46.792 78.8551 47.0102 79.2868 47.4467C79.7236 47.8831 79.9419 48.4411 79.9419 49.1205C79.9419 49.791 79.7236 50.3466 79.2868 50.7876C78.8507 51.2286 78.3015 51.449 77.6403 51.449C76.988 51.449 76.4477 51.2308 76.0204 50.7944C75.5931 50.3579 75.3681 49.8315 75.3454 49.215H74.6771V51.3681H74.1777V46.8663H74.6771V48.7426ZM78.9089 47.7976C78.5625 47.4422 78.1397 47.2644 77.6403 47.2644C77.141 47.2644 76.7176 47.4422 76.3712 47.7976C76.0293 48.1531 75.8586 48.5941 75.8586 49.1205C75.8586 49.647 76.0293 50.0879 76.3712 50.4434C76.7176 50.7989 77.141 50.9766 77.6403 50.9766C78.1397 50.9766 78.5625 50.7989 78.9089 50.4434C79.2558 50.0879 79.4287 49.647 79.4287 49.1205C79.4287 48.5941 79.2558 48.1531 78.9089 47.7976Z" fill="#383736"/>
<path d="M82.8248 47.3389H81.7314V51.3683H81.2321V47.3389H80.1387V46.8665H82.8248V47.3389Z" fill="#383736"/>
<path d="M85.8315 46.8665V47.3389H83.9954V48.6753H85.7777V49.1477H83.9954V50.8958H85.8315V51.3683H83.4961V46.8665H85.8315Z" fill="#383736"/>
<path d="M86.7539 46.8665H87.5708C88.084 46.8665 88.4619 46.9722 88.7047 47.1837C88.979 47.4177 89.1164 47.7394 89.1164 48.1488C89.1164 48.4998 88.9973 48.799 88.759 49.0465C88.5246 49.2894 88.1693 49.411 87.6922 49.411H87.2538V51.3683H86.7539V46.8665ZM87.2538 47.3389V48.9385H87.6656C87.962 48.9385 88.1943 48.8665 88.3605 48.7225C88.5318 48.5785 88.6171 48.3783 88.6171 48.1218C88.6171 47.5999 88.2863 47.3389 87.6251 47.3389H87.2538Z" fill="#383736"/>
<path d="M90.0992 46.8665H92.8391V51.3683H92.3398V47.3389H90.5985V49.7552C90.5985 49.9667 90.5963 50.1264 90.5919 50.2343C90.5874 50.3379 90.5514 50.4863 90.4838 50.6798C90.4206 50.8688 90.3242 51.0218 90.1934 51.1388C89.9911 51.3188 89.7345 51.4087 89.4242 51.4087C89.3521 51.4087 89.2624 51.3953 89.1543 51.3683V50.8958C89.2441 50.9228 89.3272 50.9363 89.4037 50.9363C89.5794 50.9363 89.7257 50.8778 89.8426 50.7608C89.9235 50.6798 89.9845 50.5651 90.0249 50.4166C90.0654 50.2636 90.0881 50.1354 90.0925 50.0319C90.097 49.9284 90.0992 49.7687 90.0992 49.5527V46.8665Z" fill="#383736"/>
<path d="M94.0039 46.8665H94.5032V51.3683H94.0039V46.8665Z" fill="#383736"/>
<path d="M96.1634 46.8665V48.7968L98.0803 46.8665H98.7554L96.6494 48.9655L98.823 51.3683H98.1347L96.292 49.303L96.1634 49.4312V51.3683H95.6641V46.8665H96.1634Z" fill="#383736"/>
<path d="M103.276 47.3389H102.183V51.3683H101.683V47.3389H100.59V46.8665H103.276V47.3389Z" fill="#383736"/>
<path d="M106.285 46.8665V47.3389H104.449V48.6753H106.23V49.1477H104.449V50.8958H106.285V51.3683H103.949V46.8665H106.285Z" fill="#383736"/>
<path d="M110.648 47.2375V47.8584C110.468 47.6784 110.272 47.5389 110.061 47.44C109.804 47.323 109.545 47.2644 109.284 47.2644C108.767 47.2644 108.335 47.4467 107.989 47.8112C107.647 48.1711 107.476 48.6143 107.476 49.1408C107.476 49.7077 107.662 50.1554 108.036 50.4839C108.414 50.8124 108.832 50.9766 109.291 50.9766C109.579 50.9766 109.858 50.9069 110.128 50.7674C110.317 50.6729 110.49 50.5469 110.648 50.3894V51.0103C110.238 51.3028 109.786 51.449 109.291 51.449C108.625 51.449 108.07 51.2263 107.624 50.7809C107.183 50.3354 106.963 49.7865 106.963 49.134C106.963 48.4636 107.186 47.9056 107.631 47.4602C108.081 47.0147 108.643 46.792 109.318 46.792C109.813 46.792 110.256 46.9405 110.648 47.2375Z" fill="#383736"/>
<path d="M113.77 47.3389H112.677V51.3683H112.177V47.3389H111.084V46.8665H113.77V47.3389Z" fill="#383736"/>
<path d="M119.778 50.7809C119.328 51.2263 118.774 51.449 118.117 51.449C117.461 51.449 116.905 51.2263 116.45 50.7809C116 50.3354 115.775 49.782 115.775 49.1205C115.775 48.4546 116.003 47.9012 116.457 47.4602C116.911 47.0147 117.465 46.792 118.117 46.792C118.77 46.792 119.323 47.0147 119.778 47.4602C120.232 47.9012 120.459 48.4546 120.459 49.1205C120.459 49.782 120.232 50.3354 119.778 50.7809ZM119.413 47.8044C119.058 47.4444 118.626 47.2644 118.117 47.2644C117.609 47.2644 117.177 47.4444 116.822 47.8044C116.466 48.1644 116.289 48.6031 116.289 49.1205C116.289 49.638 116.466 50.0767 116.822 50.4366C117.177 50.7966 117.609 50.9766 118.117 50.9766C118.626 50.9766 119.058 50.7966 119.413 50.4366C119.769 50.0767 119.946 49.638 119.946 49.1205C119.946 48.6031 119.769 48.1644 119.413 47.8044Z" fill="#383736"/>
<path d="M121.377 46.8665H122.193C122.706 46.8665 123.084 46.9722 123.327 47.1837C123.602 47.4177 123.739 47.7394 123.739 48.1488C123.739 48.4998 123.62 48.799 123.381 49.0465C123.147 49.2894 122.792 49.411 122.315 49.411H121.876V51.3683H121.377V46.8665ZM121.876 47.3389V48.9385H122.288C122.585 48.9385 122.817 48.8665 122.983 48.7225C123.154 48.5785 123.24 48.3783 123.24 48.1218C123.24 47.5999 122.909 47.3389 122.248 47.3389H121.876Z" fill="#383736"/>
<path d="M126.866 47.3389H125.773V51.3683H125.273V47.3389H124.18V46.8665H126.866V47.3389Z" fill="#383736"/>
<path d="M130.245 51.3679L129.719 50.0991H127.802L127.262 51.3679H126.709L128.781 46.6501L130.799 51.3679H130.245ZM127.998 49.6266H129.523L128.767 47.8245L127.998 49.6266Z" fill="#383736"/>
<path d="M131.961 46.8665H134.7V51.3683H134.201V47.3389H132.46V49.7552C132.46 49.9667 132.458 50.1264 132.453 50.2343C132.449 50.3379 132.413 50.4863 132.345 50.6798C132.282 50.8688 132.186 51.0218 132.055 51.1388C131.852 51.3188 131.596 51.4087 131.286 51.4087C131.213 51.4087 131.124 51.3953 131.016 51.3683V50.8958C131.105 50.9228 131.189 50.9363 131.265 50.9363C131.441 50.9363 131.587 50.8778 131.704 50.7608C131.785 50.6798 131.846 50.5651 131.886 50.4166C131.927 50.2636 131.949 50.1354 131.954 50.0319C131.958 49.9284 131.961 49.7687 131.961 49.5527V46.8665Z" fill="#383736"/>
<path d="M135.863 51.3683V46.8665H136.363V48.736H136.97C138.005 48.736 138.522 49.159 138.522 50.0049C138.522 50.4279 138.39 50.7608 138.124 51.0038C137.863 51.2468 137.51 51.3683 137.065 51.3683H135.863ZM136.363 49.2085V50.8958H136.943C137.326 50.8958 137.602 50.8126 137.774 50.6461C137.931 50.4976 138.01 50.2839 138.01 50.0049C138.01 49.6809 137.888 49.4537 137.645 49.3232C137.505 49.2467 137.254 49.2085 136.889 49.2085H136.363ZM138.995 46.8665H139.494V51.3683H138.995V46.8665Z" fill="#383736"/>
<path d="M140.654 51.3683V49.114H140.074V48.6685H140.654V46.8665H142.707V47.3389H141.154V48.6685H142.072V49.114H141.154V51.3683H140.654Z" fill="#383736"/>
<path d="M143.385 51.3683V46.8665H143.884V48.736H144.491C145.527 48.736 146.044 49.159 146.044 50.0049C146.044 50.4279 145.911 50.7608 145.646 51.0038C145.385 51.2468 145.032 51.3683 144.586 51.3683H143.385ZM143.884 49.2085V50.8958H144.465C144.847 50.8958 145.124 50.8126 145.295 50.6461C145.452 50.4976 145.531 50.2839 145.531 50.0049C145.531 49.6809 145.41 49.4537 145.166 49.3232C145.027 49.2467 144.775 49.2085 144.411 49.2085H143.884ZM146.517 46.8665H147.016V51.3683H146.517V46.8665Z" fill="#383736"/>
</svg>
